<?xml version="1.0" standalone="no"?>
<!DOCTYPE svg PUBLIC "-//W3C//DTD SVG 20010904//EN"
 "http://www.w3.org/TR/2001/REC-SVG-20010904/DTD/svg10.dtd">
<svg version="1.0" xmlns="http://www.w3.org/2000/svg"
 width="143.000000pt" height="120.000000pt" viewBox="0 0 143.000000 120.000000"
 preserveAspectRatio="xMidYMid meet">
<g transform="translate(0.000000,120.000000) scale(0.100000,-0.100000)"
fill="#000000" stroke="none">
<path d="M383 996 c-9 -14 -4 -106 8 -127 5 -10 18 -19 29 -19 19 0 38 -39 27
-57 -3 -5 8 -16 24 -26 17 -9 27 -12 23 -5 -4 7 -3 8 4 4 7 -4 12 -17 12 -29
0 -24 34 -52 51 -42 5 4 9 3 8 -2 -7 -39 3 -64 34 -80 27 -15 29 -18 12 -21
-29 -6 -45 -21 -38 -38 3 -8 0 -14 -6 -14 -6 0 -11 -7 -11 -15 0 -8 -6 -12
-14 -9 -13 5 -31 -15 -36 -41 -6 -28 -21 -57 -27 -51 -11 11 -33 -16 -33 -40
0 -13 -3 -23 -7 -22 -5 1 -20 -4 -35 -10 -23 -10 -26 -17 -30 -67 -4 -72 3
-89 38 -96 36 -7 72 8 80 33 4 13 11 17 25 13 14 -5 27 1 44 20 18 22 28 26
49 21 15 -4 26 -2 26 4 0 5 6 10 14 10 7 0 21 12 31 26 13 20 23 25 51 22 26
-2 38 3 50 20 11 15 25 22 50 22 19 0 34 5 34 11 0 16 41 50 51 43 16 -9 48 6
54 26 5 15 12 18 34 14 24 -5 32 -1 47 24 13 23 24 30 45 30 45 -2 59 17 59
81 0 66 -11 81 -58 81 -25 0 -35 5 -39 20 -4 13 -17 22 -42 26 -20 4 -44 15
-54 25 -10 11 -31 19 -47 19 -18 0 -30 5 -30 13 0 18 -47 39 -70 32 -13 -4
-20 0 -25 14 -8 27 -26 34 -107 40 -10 0 -18 7 -18 15 0 17 -21 26 -59 26 -18
0 -35 9 -47 25 -10 14 -28 25 -40 25 -11 0 -29 9 -39 20 -14 15 -29 20 -57 18
-22 -1 -42 -6 -45 -12z m87 -32 c0 -22 4 -24 44 -24 39 0 44 -2 39 -19 -4 -18
1 -20 48 -23 50 -3 54 -5 51 -25 -3 -22 0 -23 57 -23 59 0 61 -1 61 -26 0 -25
2 -26 48 -22 44 3 47 2 44 -19 -3 -21 1 -23 47 -23 47 0 51 -2 48 -22 -2 -20
4 -24 43 -28 36 -4 44 -9 42 -22 -2 -14 5 -18 30 -19 65 -2 63 0 66 -61 l3
-58 -49 0 c-44 0 -49 -2 -48 -22 1 -20 -5 -23 -41 -26 -34 -3 -42 -7 -45 -25
-3 -20 -8 -22 -51 -19 -47 4 -48 3 -45 -24 3 -27 2 -28 -44 -25 -46 2 -48 1
-48 -23 0 -25 -3 -26 -54 -26 -52 0 -55 -1 -58 -27 -3 -26 -5 -27 -55 -24 -51
2 -53 2 -53 -24 0 -25 -3 -26 -37 -23 -35 3 -38 1 -41 -24 -3 -25 -8 -28 -38
-28 l-34 0 0 59 0 60 33 3 c28 3 33 7 37 38 4 30 10 36 35 40 28 5 30 8 30 45
0 38 2 40 27 37 24 -3 27 0 30 35 3 34 7 39 33 43 25 4 31 10 33 35 3 28 1 30
-30 30 -31 0 -33 2 -33 35 0 31 -3 36 -30 40 -26 4 -29 9 -30 40 0 33 -2 35
-32 34 -32 -2 -33 -1 -33 42 0 44 0 44 -35 44 l-35 0 0 53 c0 30 2 56 5 59 3
3 19 5 35 6 25 1 30 -3 30 -24z"/>
</g>
</svg>
